<svg height="60" version="1.1" width="60" xmlns="http://www.w3.org/2000/svg" viewBox="0 0 64 64">
	<desc>Created with Snap</desc>
	<defs></defs>
	<g>
		<path
			class="dedo"
			d="M53.54,41.113C53.54,41.113,53.54,10.73,53.54,10.73C53.54,7.745000000000001,51.121,5.324999999999999,48.137,5.324999999999999C45.152,5.324999999999999,42.734,7.745000000000001,42.734,10.73C42.734,10.73,42.734,27.240000000000002,42.734,27.240000000000002C41.082,26.669,39.308,26.358,37.462,26.358C37.409000000000006,26.358,37.357000000000006,26.359,37.304,26.36C37.303000000000004,26.36,37.303000000000004,26.36,37.302,26.36C37.302,26.36,27.094,26.36,27.094,26.36C26.941000000000003,26.36,26.790000000000003,26.366,26.64,26.378999999999998C26.64,26.378999999999998,26.64,26.36,26.64,26.36C23.425,26.36,20.43,27.3,17.914,28.921C13.421999999999997,31.786,10.443000000000005,36.813,10.443000000000005,42.536C10.443000000000005,43.017,10.466000000000001,43.493,10.506999999999998,43.963C10.517000000000003,44.289,10.554000000000002,44.607,10.619,44.916000000000004C11.770000000000003,52.7,18.478,58.67400000000001,26.582,58.67400000000001C28.491,58.67400000000001,30.323,58.342000000000006,32.022,57.733000000000004C25.785999999999998,55.50000000000001,21.323999999999998,49.540000000000006,21.323999999999998,42.536C21.323999999999998,42.479,21.326999999999998,42.423,21.326999999999998,42.366C21.371000000000002,40.525,22.311999999999998,39.307,22.880999999999993,38.739C23.461999999999996,38.157,24.724999999999994,37.181,26.641,37.181C26.641,37.181,26.641,37.147999999999996,26.641,37.147999999999996C26.79,37.160999999999994,26.941999999999993,37.166999999999994,27.095,37.166999999999994C27.095,37.166999999999994,37.303,37.166999999999994,37.303,37.166999999999994C40.766,37.166999999999994,42.705999999999996,34.748,42.705999999999996,31.763999999999996C42.705999999999996,30.415999999999997,42.211,29.183999999999997,41.394999999999996,28.237999999999996C43.074,29.231999999999996,44.29599999999999,30.994999999999997,44.29599999999999,32.898999999999994C44.29599999999999,36.39699999999999,41.172999999999995,38.727,38.892999999999994,38.727C38.892999999999994,38.727,26.804000000000002,38.74,26.804000000000002,38.74C24.997999999999998,38.74,22.745999999999995,39.543,22.453000000000003,42.477000000000004C21.881,48.205000000000005,26.063000000000002,54.847,31.453,57.467000000000006C31.453,57.467000000000006,31.429,57.464000000000006,31.429,57.464000000000006C33.293,58.21600000000001,35.327999999999996,58.634,37.461999999999996,58.634C46.373999999999995,58.634,53.541,51.409000000000006,53.541,42.495000000000005C53.54,42.03,53.579,41.569,53.54,41.113C53.54,41.113,53.54,41.113,53.54,41.113"></path>
		<path
			class="dedo"
			d="M14.493,29.213C16.063,27.643,17.891000000000002,26.649,19.926000000000002,25.789C20.381,25.597,20.842000000000002,25.426000000000002,21.308000000000003,25.275000000000002C21.308000000000003,25.275000000000002,21.308000000000003,10.729,21.308000000000003,10.729C21.308000000000003,7.744999999999999,18.889000000000003,5.324999999999999,15.904000000000003,5.324999999999999C12.920000000000003,5.324999999999999,10.501000000000005,7.744999999999997,10.501000000000005,10.729C10.501000000000005,10.729,10.501000000000005,34.943,10.501000000000005,34.943C10.603000000000005,34.662,10.712000000000005,34.443,10.829000000000004,34.166999999999994C11.691,32.132,12.923,30.782,14.493,29.213C14.493,29.213,14.493,29.213,14.493,29.213C14.493,29.213,14.493,29.213,14.493,29.213C14.493,29.213,14.493,29.213,14.493,29.213C14.493,29.213,14.493,29.213,14.493,29.213C14.493,29.213,14.493,29.213,14.493,29.213C14.493,29.213,14.493,29.213,14.493,29.213C14.493,29.213,14.493,29.213,14.493,29.213C14.493,29.213,14.493,29.213,14.493,29.213C14.493,29.213,14.493,29.213,14.493,29.213C14.493,29.213,14.493,29.213,14.493,29.213C14.493,29.213,14.493,29.213,14.493,29.213C14.493,29.213,14.493,29.213,14.493,29.213C14.493,29.213,14.493,29.213,14.493,29.213C14.493,29.213,14.493,29.213,14.493,29.213"></path>
		<path class="dedo" d="M,0,0"></path>
	</g>
</svg>
