<svg height="60" version="1.1" width="60" xmlns="http://www.w3.org/2000/svg" viewBox="0 0 64 64">
	<desc>Created with Snap</desc>
	<defs></defs>
	<g>
		<path
			class="dedo"
			d="M61.25,26.297C61.25,26.297,55.506,26.297,55.506,26.297C55.42,26.297,55.335,26.301000000000002,55.251,26.310000000000002C55.251,26.310000000000002,55.251,26.297000000000004,55.251,26.297C50.235,26.297,46.169,31.387,46.169,37.667C46.169,37.667,46.169,37.667,46.169,37.667C46.169,37.667,46.190999999999995,37.667,46.190999999999995,37.667C46.175999999999995,37.82,46.169,37.975,46.169,38.132000000000005C46.169,38.132000000000005,46.169,45.325,46.169,45.325C46.169,47.428000000000004,47.529999999999994,49.132000000000005,49.209999999999994,49.132000000000005C50.888999999999996,49.132000000000005,52.25099999999999,47.428000000000004,52.25099999999999,45.325C52.25099999999999,45.325,52.25099999999999,38.132000000000005,52.25099999999999,38.132000000000005C52.25099999999999,37.974000000000004,52.24299999999999,37.819,52.22799999999999,37.667C52.22799999999999,37.667,52.25799999999999,37.667,52.25799999999999,37.667C52.25799999999999,37.667,52.25799999999999,37.667,52.25799999999999,37.667C52.25799999999999,36.317,52.80699999999999,35.428000000000004,53.13499999999999,35.018C53.46199999999999,34.609,54.17199999999999,33.921,55.25099999999999,33.921C55.25099999999999,33.921,55.25099999999999,33.897999999999996,55.25099999999999,33.897999999999996C55.334999999999994,33.907,55.41999999999999,33.910999999999994,55.505999999999986,33.910999999999994C55.50599999999999,33.910999999999994,61.249999999999986,33.910999999999994,61.24999999999999,33.910999999999994C62.92899999999999,33.910999999999994,64.291,32.205999999999996,64.291,30.103999999999996C64.291,28.001,62.929,26.297,61.25,26.297C61.25,26.297,61.25,26.297,61.25,26.297C61.25,26.297,61.25,26.297,61.25,26.297C61.25,26.297,61.25,26.297,61.25,26.297C61.25,26.297,61.25,26.297,61.25,26.297C61.25,26.297,61.25,26.297,61.25,26.297C61.25,26.297,61.25,26.297,61.25,26.297C61.25,26.297,61.25,26.297,61.25,26.297C61.25,26.297,61.25,26.297,61.25,26.297C61.25,26.297,61.25,26.297,61.25,26.297C61.25,26.297,61.25,26.297,61.25,26.297C61.25,26.296999999999997,61.25,26.297000000000004,61.25,26.297000000000004C61.25,26.297000000000004,61.25,26.297,61.25,26.297C61.25,26.297,61.25,26.297,61.25,26.297C61.25,26.297,61.25,26.297,61.25,26.297"></path>
		<path
			class="dedo"
			d="M20.672,37.56C20.672,37.56,20.672,16.939,20.672,16.939C20.672,15.014,19.12,13.453,17.205000000000002,13.453C15.289000000000001,13.453,13.738000000000001,15.013,13.738000000000001,16.939C13.738000000000001,16.939,13.738000000000001,28.59,13.738000000000001,28.59C12.677000000000001,28.222,11.541,28.019,10.355,28.019C4.637,28.018,0,32.678,0,38.426C0,44.175000000000004,4.637,48.834,10.356,48.834C16.075,48.834,20.712,44.17400000000001,20.712,38.426C20.711,38.135,20.697,37.847,20.672,37.56C20.672,37.56,20.672,37.56,20.672,37.56C20.672,37.56,20.672,37.56,20.672,37.56C20.672,37.56,20.672,37.56,20.672,37.56C20.672,37.56,20.672,37.56,20.672,37.56C20.672,37.56,20.672,37.56,20.672,37.56C20.672,37.56,20.672,37.56,20.672,37.56C20.672,37.56,20.672,37.56,20.672,37.56C20.672,37.56,20.672,37.56,20.672,37.56C20.672,37.56,20.672,37.56,20.672,37.56C20.672,37.56,20.672,37.56,20.672,37.56C20.672,37.56,20.672,37.56,20.672,37.56C20.672,37.56,20.672,37.56,20.672,37.56C20.672,37.56,20.672,37.56,20.672,37.56"></path>
		<path
			class="dedo"
			d="M34.145,27.966C32.933,27.966,31.771000000000004,28.172,30.687000000000005,28.547C30.687000000000005,28.547,30.687000000000005,16.7,30.687000000000005,16.7C30.687000000000005,14.742999999999999,29.101000000000006,13.155999999999999,27.144000000000005,13.155999999999999C25.188000000000006,13.155999999999999,23.601000000000006,14.742999999999999,23.601000000000006,16.7C23.601000000000006,16.7,23.601000000000006,37.668,23.601000000000006,37.668C23.577000000000005,37.958999999999996,23.561000000000007,38.251,23.561000000000007,38.548C23.561000000000007,44.394000000000005,28.300000000000008,49.131,34.144000000000005,49.131C39.988,49.131,44.727000000000004,44.393,44.727000000000004,38.548C44.728,32.704,39.99,27.966,34.145,27.966C34.145,27.966,34.145,27.966,34.145,27.966"></path>
	</g>
</svg>
